<svg id="svg" xmlns="http://www.w3.org/2000/svg" xmlns:xlink="http://www.w3.org/1999/xlink" width="400" height="427.58620689655174" viewBox="0, 0, 400,427.58620689655174"><g id="svgg"><path id="path0" d="M336.207 22.363 C 336.207 22.809,336.600 23.417,337.081 23.715 C 343.753 27.838,342.344 49.961,334.772 59.995 C 333.665 61.462,332.759 63.158,332.759 63.762 C 332.759 66.563,318.464 87.973,313.793 92.168 C 297.163 107.103,269.828 93.143,269.828 69.716 C 269.828 62.592,270.324 61.207,272.875 61.207 C 277.571 61.207,279.259 66.392,277.087 74.136 C 275.123 81.135,276.445 82.965,280.203 78.448 C 281.583 76.789,282.723 74.994,282.735 74.459 C 282.748 73.924,283.290 73.046,283.939 72.507 C 286.531 70.356,285.176 57.709,282.050 54.880 C 267.820 42.002,255.670 74.106,268.984 89.406 C 280.795 102.980,281.836 103.773,291.405 106.473 C 307.707 111.073,323.666 101.085,335.214 79.054 C 337.750 74.217,340.522 69.483,341.374 68.534 C 342.227 67.586,343.724 63.949,344.702 60.453 C 345.680 56.956,346.628 53.947,346.809 53.766 C 349.351 51.224,352.151 70.582,352.126 90.517 C 352.066 136.829,334.253 165.962,293.179 186.924 C 287.293 189.928,281.552 192.992,280.421 193.733 L 278.363 195.081 278.574 191.291 C 278.696 189.079,279.728 185.884,281.050 183.621 C 294.278 160.980,294.659 125.761,281.815 112.849 C 279.489 110.511,277.586 108.262,277.586 107.850 C 277.586 104.071,261.781 96.062,252.586 95.182 C 238.207 93.807,227.258 109.643,233.032 123.463 C 237.826 134.936,256.998 128.728,254.261 116.590 C 252.694 109.642,246.552 109.460,246.552 116.361 C 246.552 118.868,246.194 119.828,245.259 119.828 C 242.676 119.828,243.668 113.568,246.927 109.300 C 253.946 100.108,261.089 100.710,271.284 111.353 C 275.879 116.150,284.541 136.875,283.302 140.105 C 283.044 140.775,283.205 141.553,283.658 141.834 C 289.151 145.228,268.265 190.968,254.678 205.301 C 247.575 212.793,291.429 204.897,305.172 196.209 C 330.401 180.260,341.767 168.189,352.834 145.589 C 369.352 111.856,369.438 78.189,353.096 42.486 C 350.445 36.694,348.276 31.596,348.276 31.156 C 348.276 30.717,347.686 30.131,346.966 29.854 C 346.245 29.578,344.867 28.015,343.904 26.382 C 342.899 24.679,341.014 23.017,339.482 22.483 C 336.239 21.352,336.207 21.351,336.207 22.363 M41.264 30.613 C 40.015 31.292,38.185 33.216,37.198 34.889 C 36.211 36.562,35.002 37.931,34.512 37.931 C 34.022 37.931,33.621 38.323,33.621 38.801 C 33.621 39.280,31.860 43.793,29.709 48.830 C 4.007 109.003,28.950 173.038,88.215 199.029 C 105.239 206.495,139.655 211.452,139.655 206.438 C 139.655 206.259,138.782 205.174,137.716 204.026 C 122.359 187.503,105.733 158.379,105.416 147.445 C 104.842 127.656,119.822 102.950,131.347 104.679 C 137.706 105.632,144.828 112.963,144.828 118.555 C 144.828 122.020,141.837 121.073,141.724 117.572 C 141.499 110.602,135.052 111.158,133.953 118.242 C 133.410 121.739,138.008 129.796,140.090 128.997 C 140.769 128.737,141.553 128.895,141.834 129.348 C 142.670 130.701,149.116 130.283,151.793 128.702 C 160.281 123.687,157.419 103.881,147.462 98.732 C 136.298 92.959,116.485 99.961,108.542 112.486 C 107.226 114.560,105.357 116.681,104.387 117.200 C 102.111 118.418,99.424 127.300,98.331 137.219 C 96.517 153.671,100.958 171.215,110.434 185.032 C 112.841 188.541,114.736 195.693,113.257 195.686 C 112.841 195.685,111.334 194.972,109.909 194.103 C 108.484 193.234,105.035 191.669,102.245 190.625 C 94.523 187.736,83.629 182.366,78.534 178.937 C 76.021 177.246,73.625 175.862,73.210 175.862 C 71.662 175.862,57.655 162.282,53.205 156.466 C 37.795 136.323,31.872 117.604,31.930 89.224 C 31.962 73.463,35.030 57.131,36.869 62.931 C 39.266 70.492,40.799 73.800,43.138 76.464 C 44.524 78.042,46.227 80.436,46.924 81.783 C 51.119 89.895,60.640 100.959,68.269 106.588 C 71.212 108.759,86.154 112.497,89.080 111.794 C 102.187 108.645,104.458 107.349,112.282 98.555 C 125.244 83.986,126.357 67.192,114.960 58.136 C 103.576 49.090,94.029 67.165,103.538 79.760 C 109.272 87.355,110.977 86.391,108.140 77.155 C 106.071 70.418,107.653 64.655,111.571 64.655 C 118.885 64.655,116.926 82.776,108.557 92.541 C 96.351 106.782,77.347 105.600,64.638 89.809 C 58.935 82.722,51.737 72.621,51.104 70.816 C 50.831 70.035,49.675 68.136,48.535 66.595 C 40.850 56.200,38.370 42.973,42.558 34.708 C 45.634 28.638,45.526 28.297,41.264 30.613 M212.931 44.486 C 212.931 44.613,214.483 45.589,216.379 46.655 C 218.276 47.721,219.828 48.930,219.828 49.341 C 219.828 50.780,226.373 52.801,236.081 54.359 C 247.969 56.268,246.888 55.095,246.995 66.197 C 247.044 71.276,247.384 76.789,247.750 78.448 C 248.644 82.501,242.759 85.482,230.240 87.320 C 229.463 87.434,226.943 83.412,223.344 76.309 C 220.225 70.155,217.084 64.523,216.365 63.795 C 215.646 63.067,212.807 59.277,210.056 55.373 C 207.304 51.470,204.701 48.276,204.271 48.276 C 202.984 48.276,203.480 58.436,204.821 59.549 C 206.340 60.810,215.296 75.074,222.853 88.268 C 228.232 97.660,228.823 98.382,229.896 96.889 C 235.414 89.208,241.560 87.368,255.388 89.257 C 260.263 89.924,260.405 89.445,256.950 83.997 C 250.985 74.591,251.220 62.904,257.630 50.240 C 259.123 47.290,260.345 44.623,260.345 44.313 C 260.345 43.183,255.287 44.802,252.134 46.941 C 247.823 49.867,240.169 50.252,233.190 47.895 C 225.950 45.449,212.931 43.259,212.931 44.486 M166.379 45.439 C 163.772 45.600,160.474 46.254,159.052 46.892 C 148.022 51.841,138.874 52.818,132.572 49.719 C 124.254 45.629,122.546 46.239,126.221 51.984 C 134.358 64.705,135.264 74.984,129.263 86.521 C 126.047 92.705,125.815 92.491,133.942 90.834 C 146.992 88.173,156.316 91.888,159.752 101.119 C 160.622 103.455,163.049 99.343,163.295 95.117 C 163.473 92.048,164.711 88.549,167.687 82.706 C 169.966 78.231,172.415 73.405,173.129 71.983 C 174.637 68.979,181.051 59.255,181.942 58.621 C 182.276 58.384,182.305 55.668,182.007 52.586 L 181.466 46.983 179.925 49.138 C 171.854 60.431,165.943 70.497,162.727 78.430 C 159.224 87.066,156.971 90.143,155.679 88.053 C 155.427 87.646,152.980 87.107,150.240 86.856 C 147.500 86.605,143.579 85.678,141.526 84.795 L 137.793 83.190 138.500 79.741 C 139.464 75.042,139.260 65.511,138.126 62.257 C 136.863 58.634,137.440 58.294,148.707 56.027 C 158.596 54.037,164.655 52.053,164.655 50.805 C 164.655 50.402,166.401 49.050,168.534 47.799 C 172.092 45.714,173.388 44.587,171.767 44.987 C 171.412 45.075,168.987 45.278,166.379 45.439 M221.552 58.043 C 221.552 59.387,232.100 80.172,232.782 80.172 C 235.578 80.172,240.641 75.472,240.152 73.331 C 239.874 72.115,239.401 69.084,239.099 66.595 C 238.772 63.885,238.126 62.069,237.492 62.069 C 236.909 62.069,234.150 61.350,231.362 60.471 C 225.144 58.512,221.552 57.623,221.552 58.043 M154.707 61.494 L 146.913 64.211 146.933 67.235 C 146.944 68.898,146.654 71.810,146.289 73.707 C 145.632 77.115,145.667 77.178,149.321 79.097 C 154.564 81.852,154.652 81.797,157.769 73.922 C 159.317 70.011,161.507 64.968,162.634 62.716 C 165.065 57.860,165.108 57.867,154.707 61.494 M344.828 76.188 C 344.828 76.841,344.310 77.805,343.677 78.330 C 343.043 78.856,341.986 80.940,341.327 82.962 C 339.081 89.853,323.916 107.759,320.326 107.759 C 319.578 107.759,318.966 108.052,318.966 108.410 C 318.966 109.607,310.571 112.931,307.547 112.931 C 292.773 112.931,291.721 113.903,294.483 125.000 C 298.262 140.184,298.959 164.093,295.773 169.277 C 292.542 174.536,292.439 179.962,295.622 177.317 C 296.370 176.695,298.728 175.446,300.862 174.543 C 308.987 171.103,327.997 152.984,332.492 144.397 C 339.623 130.774,344.586 115.000,345.240 103.879 C 346.487 82.672,346.625 75.000,345.759 75.000 C 345.247 75.000,344.828 75.534,344.828 76.188 M175.187 83.908 C 172.265 86.819,170.895 89.286,168.620 95.733 C 167.039 100.213,164.538 107.152,163.062 111.152 C 159.906 119.705,159.756 119.234,165.126 117.613 C 180.496 112.974,204.631 112.630,220.905 116.818 C 223.997 117.614,223.943 116.862,220.360 109.209 C 218.756 105.783,216.794 101.049,216.001 98.688 C 213.779 92.073,208.004 82.843,205.785 82.358 C 198.962 80.869,192.694 80.176,186.264 80.201 L 178.879 80.229 175.187 83.908 M38.214 88.578 C 41.420 129.071,49.378 147.111,72.414 166.108 C 82.204 174.181,87.604 177.481,92.237 178.220 C 93.421 178.409,95.031 179.145,95.816 179.855 C 98.048 181.876,98.604 179.772,96.874 175.851 C 96.040 173.961,95.063 172.414,94.702 172.414 C 90.850 172.414,90.579 138.556,94.316 124.151 C 95.908 118.012,95.087 117.507,82.759 117.032 C 72.095 116.622,70.069 115.941,61.178 109.779 C 55.282 105.693,45.763 95.161,43.212 89.901 C 41.967 87.335,40.565 84.483,40.097 83.565 C 38.375 80.188,37.693 82.003,38.214 88.578 M196.072 95.019 C 197.767 97.439,197.764 98.665,196.059 100.369 C 193.128 103.300,187.257 100.408,188.548 96.668 C 189.832 92.946,193.982 92.036,196.072 95.019 M179.310 95.690 C 181.160 97.539,181.333 98.220,180.502 100.384 C 179.119 103.990,174.422 103.752,172.400 99.974 C 170.453 96.336,176.319 92.699,179.310 95.690 M210.345 95.690 C 214.251 99.595,209.858 105.254,205.364 102.106 C 202.897 100.378,202.897 97.036,205.364 95.308 C 207.830 93.580,208.269 93.614,210.345 95.690 M126.546 111.853 C 125.137 113.480,120.690 120.979,120.690 121.728 C 120.690 121.979,122.186 123.175,124.015 124.386 L 127.341 126.587 127.854 119.935 C 128.136 116.277,128.621 112.622,128.931 111.814 C 129.665 109.901,128.217 109.925,126.546 111.853 M259.000 111.814 C 259.310 112.622,259.795 116.277,260.077 119.935 L 260.590 126.587 263.916 124.386 C 267.869 121.769,267.799 122.241,264.967 117.317 C 261.492 111.277,257.316 107.425,259.000 111.814 M267.003 129.097 C 266.170 130.018,263.978 131.506,262.131 132.404 C 257.880 134.472,256.528 139.528,259.408 142.593 C 261.574 144.898,267.241 155.709,267.241 157.534 C 267.241 160.296,268.178 157.864,269.018 152.919 C 270.026 146.985,270.112 134.446,269.173 130.306 C 268.533 127.486,268.485 127.460,267.003 129.097 M118.545 131.689 C 117.704 136.135,117.893 146.817,118.921 152.919 C 119.753 157.859,120.690 160.303,120.690 157.534 C 120.690 155.709,126.357 144.898,128.523 142.593 C 130.607 140.375,130.048 134.060,127.704 133.333 C 126.928 133.092,124.687 131.898,122.724 130.679 L 119.155 128.463 118.545 131.689 M185.776 143.669 C 176.319 148.497,171.390 151.748,166.642 156.290 L 163.025 159.750 165.500 161.125 C 170.685 164.006,179.124 172.642,181.092 177.082 C 182.161 179.493,183.844 183.211,184.832 185.345 C 186.099 188.079,186.719 191.451,186.935 196.767 L 187.241 204.310 193.966 204.310 L 200.691 204.310 200.996 196.767 C 201.212 191.451,201.832 188.079,203.099 185.345 C 204.087 183.211,205.770 179.493,206.839 177.082 C 208.807 172.642,217.246 164.006,222.431 161.125 L 224.906 159.750 221.289 156.290 C 216.158 151.381,196.441 139.454,193.835 139.681 C 193.670 139.696,190.043 141.490,185.776 143.669 M129.522 150.000 C 124.213 159.583,125.956 163.229,136.350 164.291 C 143.949 165.068,147.620 164.273,144.979 162.423 C 142.656 160.795,135.539 151.569,133.715 147.820 L 132.319 144.950 129.522 150.000 M254.725 146.666 C 253.904 149.337,246.120 159.881,243.378 162.038 L 241.235 163.724 243.535 164.301 C 251.608 166.327,261.221 162.870,261.181 157.954 C 261.143 153.339,255.635 143.708,254.725 146.666 M160.337 166.820 C 159.751 167.526,158.626 168.103,157.836 168.103 C 156.354 168.103,151.534 174.929,146.648 183.947 C 144.103 188.643,143.920 189.534,144.149 196.103 L 144.397 203.192 155.955 203.751 C 162.313 204.059,170.707 204.310,174.610 204.310 L 181.706 204.310 181.261 196.767 C 180.625 185.970,175.683 176.538,167.020 169.583 C 161.980 165.537,161.549 165.359,160.337 166.820 M221.734 168.903 C 212.392 176.287,207.324 185.661,206.670 196.767 L 206.225 204.310 213.321 204.310 C 217.224 204.310,225.618 204.059,231.976 203.751 L 243.534 203.192 243.782 196.103 C 244.011 189.534,243.828 188.643,241.283 183.947 C 236.620 175.340,231.591 168.103,230.273 168.103 C 229.581 168.103,228.357 167.508,227.553 166.781 C 226.222 165.576,225.703 165.766,221.734 168.903 M124.922 169.669 C 127.933 175.563,137.839 187.069,139.902 187.069 C 140.137 187.069,140.596 186.002,140.921 184.698 C 141.546 182.187,146.492 174.158,149.418 170.905 L 151.163 168.966 139.590 168.960 C 131.249 168.956,127.358 168.611,125.658 167.724 L 123.299 166.494 124.922 169.669 M262.069 167.744 C 260.535 168.595,256.579 168.944,248.341 168.953 L 236.768 168.966 238.513 170.905 C 241.439 174.158,246.385 182.187,247.010 184.698 C 247.735 187.608,247.815 187.610,251.166 184.790 C 255.386 181.239,266.689 165.654,264.457 166.464 C 264.329 166.510,263.254 167.087,262.069 167.744 M29.536 185.698 C 28.560 187.163,27.475 189.332,27.125 190.517 C 25.922 194.585,15.792 206.172,9.711 210.436 C 3.312 214.923,3.303 216.370,9.659 219.768 C 11.221 220.604,13.570 221.875,14.878 222.593 C 16.963 223.737,23.475 229.635,27.733 234.234 C 28.525 235.090,29.425 236.794,29.733 238.021 C 30.574 241.375,35.925 246.200,36.577 244.193 C 37.627 240.957,46.703 232.892,52.586 229.967 C 56.664 227.939,79.797 227.017,84.055 228.712 C 85.704 229.369,85.791 229.019,86.000 220.950 C 86.120 216.303,86.430 211.483,86.688 210.241 C 87.257 207.502,74.418 200.585,66.810 199.531 C 63.034 199.008,56.531 196.885,52.586 194.887 C 51.875 194.527,49.256 193.745,46.767 193.151 C 44.278 192.556,42.241 191.762,42.241 191.387 C 42.241 191.011,41.262 190.458,40.064 190.158 C 38.867 189.857,36.407 188.131,34.599 186.323 L 31.310 183.034 29.536 185.698 M355.611 187.045 C 353.798 192.758,340.988 200.105,330.109 201.671 C 327.467 202.051,324.558 202.755,323.644 203.235 C 322.730 203.716,318.879 204.533,315.086 205.052 C 302.752 206.739,301.430 207.348,302.044 211.060 C 302.332 212.800,302.572 218.537,302.577 223.809 L 302.586 233.395 318.750 233.846 C 334.378 234.283,348.580 236.522,349.995 238.773 C 350.235 239.154,352.105 240.337,354.151 241.401 C 356.197 242.466,358.496 244.290,359.260 245.455 L 360.648 247.574 362.203 245.554 C 363.058 244.443,364.196 242.177,364.732 240.517 C 365.269 238.858,366.156 237.112,366.703 236.638 C 367.251 236.164,369.019 234.030,370.632 231.897 C 373.791 227.720,380.965 220.690,382.068 220.690 C 382.440 220.690,383.915 219.464,385.347 217.966 C 388.526 214.639,387.644 213.156,380.455 209.739 C 374.878 207.089,363.449 196.160,362.579 192.646 C 361.507 188.316,356.488 184.282,355.611 187.045 M73.974 211.466 C 74.393 214.939,70.636 217.107,67.620 215.131 C 64.760 213.257,65.008 209.558,68.095 208.027 C 70.852 206.659,73.588 208.260,73.974 211.466 M142.241 212.254 L 142.241 216.319 151.078 216.565 C 160.666 216.831,160.350 216.615,159.134 222.076 C 158.367 225.520,168.500 232.128,181.250 236.498 C 182.228 236.833,182.759 237.907,182.759 239.555 C 182.759 242.076,182.799 242.096,188.362 242.383 C 201.282 243.050,205.172 242.395,205.172 239.555 C 205.172 237.907,205.703 236.833,206.681 236.498 C 219.431 232.128,229.564 225.520,228.797 222.076 C 227.581 216.615,227.265 216.831,236.853 216.565 L 245.690 216.319 245.690 212.254 L 245.690 208.190 193.966 208.190 L 142.241 208.190 142.241 212.254 M27.643 211.237 C 29.636 212.304,29.901 216.540,28.069 218.060 C 25.864 219.891,22.112 218.813,21.154 216.074 C 19.821 212.263,23.891 209.229,27.643 211.237 M369.113 211.772 C 372.243 214.604,370.586 218.966,366.379 218.966 C 362.239 218.966,360.645 215.071,363.496 211.921 C 365.266 209.965,367.064 209.917,369.113 211.772 M323.103 213.966 C 325.541 216.404,323.318 221.552,319.828 221.552 C 317.771 221.552,315.517 219.298,315.517 217.241 C 315.517 213.751,320.665 211.528,323.103 213.966 M183.339 220.365 C 182.632 224.723,182.698 224.713,175.235 221.528 C 165.832 217.516,165.841 217.241,175.371 217.241 L 183.846 217.241 183.339 220.365 M220.216 217.955 C 218.792 219.197,206.017 224.408,205.548 223.938 C 205.301 223.691,204.871 222.084,204.592 220.365 L 204.085 217.241 212.560 217.241 C 217.221 217.241,220.666 217.563,220.216 217.955 M144.650 226.940 L 144.397 233.190 134.254 238.419 C 121.645 244.919,121.851 244.722,123.154 249.072 C 124.511 253.602,126.417 255.566,128.027 254.095 C 128.676 253.502,130.615 252.047,132.336 250.862 C 134.056 249.677,136.560 247.834,137.899 246.767 C 139.239 245.700,140.613 244.828,140.953 244.828 C 141.293 244.828,143.371 243.321,145.570 241.481 C 147.769 239.640,152.227 236.673,155.477 234.887 L 161.384 231.641 158.373 228.882 C 156.058 226.761,155.457 225.623,155.775 223.961 C 156.225 221.605,153.985 220.690,147.775 220.690 L 144.903 220.690 144.650 226.940 M233.749 221.309 C 232.100 221.623,231.802 222.106,232.146 223.909 C 232.476 225.633,231.903 226.734,229.558 228.882 L 226.547 231.641 232.454 234.887 C 235.704 236.673,240.162 239.640,242.361 241.481 C 244.560 243.321,246.638 244.828,246.978 244.828 C 247.318 244.828,248.692 245.700,250.032 246.767 C 251.371 247.834,253.875 249.677,255.596 250.862 C 257.316 252.047,259.255 253.502,259.904 254.095 C 261.514 255.566,263.420 253.602,264.777 249.072 C 266.080 244.722,266.286 244.919,253.677 238.419 L 243.534 233.190 243.281 226.940 L 243.028 220.690 239.402 220.807 C 237.408 220.872,234.864 221.098,233.749 221.309 M162.051 237.235 C 160.401 238.628,156.689 241.099,153.801 242.726 C 150.912 244.354,147.421 246.674,146.042 247.882 C 144.663 249.090,140.145 252.097,136.002 254.565 C 128.057 259.297,127.621 260.005,129.993 264.311 L 131.466 266.985 140.980 263.449 C 149.208 260.392,151.539 259.053,158.221 253.542 C 162.471 250.038,167.985 245.856,170.474 244.248 C 176.104 240.613,176.096 240.493,170.025 237.311 L 165.049 234.703 162.051 237.235 M218.093 237.225 C 211.994 240.476,211.971 240.707,217.405 244.215 C 219.923 245.841,225.460 250.038,229.710 253.542 C 236.392 259.053,238.723 260.392,246.951 263.449 L 256.466 266.985 257.938 264.311 C 260.311 260.002,259.876 259.297,251.929 254.588 C 247.786 252.133,243.532 249.314,242.476 248.322 C 241.419 247.331,238.122 245.113,235.148 243.393 C 232.174 241.674,228.185 239.015,226.282 237.485 L 222.823 234.703 218.093 237.225 M60.636 237.381 C 52.125 239.257,51.454 241.156,54.326 255.252 C 58.132 273.924,68.908 298.976,77.654 309.483 L 79.448 311.638 78.975 302.064 C 78.263 287.635,84.078 283.295,89.554 294.169 C 92.114 299.254,97.454 302.105,105.067 302.451 C 114.532 302.881,115.221 301.782,109.749 294.986 C 100.399 283.374,92.462 266.719,88.724 250.862 C 86.662 242.115,85.849 240.935,79.795 237.906 C 75.928 235.971,68.018 235.754,60.636 237.381 M180.131 245.335 C 177.571 250.120,162.464 261.963,153.879 265.916 C 151.034 267.226,146.693 269.802,144.231 271.639 C 140.156 274.681,137.634 276.038,132.138 278.146 C 130.350 278.832,130.718 279.386,137.800 286.666 C 143.214 292.230,145.654 294.198,146.353 293.562 C 146.890 293.073,151.325 288.606,156.208 283.636 C 161.091 278.666,169.022 270.714,173.833 265.964 C 190.887 249.127,193.369 245.709,188.578 245.662 C 187.037 245.647,185.023 245.065,184.102 244.369 C 181.849 242.665,181.517 242.746,180.131 245.335 M203.829 244.369 C 202.908 245.065,200.894 245.647,199.353 245.662 C 194.562 245.709,197.044 249.127,214.098 265.964 C 218.909 270.714,226.840 278.666,231.723 283.636 C 236.606 288.606,241.041 293.073,241.578 293.562 C 242.277 294.198,244.717 292.230,250.131 286.666 C 257.213 279.386,257.581 278.832,255.793 278.146 C 250.297 276.038,247.775 274.681,243.700 271.639 C 241.238 269.802,236.897 267.226,234.052 265.916 C 225.467 261.963,210.360 250.120,207.800 245.335 C 206.414 242.746,206.082 242.665,203.829 244.369 M302.924 243.894 C 301.645 244.448,300.930 245.791,300.512 248.419 C 298.127 263.434,283.431 292.755,274.711 299.898 C 272.969 301.325,274.904 303.372,278.041 303.421 C 279.002 303.436,280.655 304.055,281.714 304.797 C 283.879 306.313,284.122 306.104,291.333 296.507 C 299.141 286.117,302.357 288.565,303.354 305.659 C 304.207 320.280,303.872 320.252,313.015 306.466 C 325.123 288.209,339.441 248.578,335.391 244.529 C 334.243 243.381,305.410 242.817,302.924 243.894 M73.233 246.931 C 75.022 249.086,73.988 252.887,71.362 253.805 C 67.082 255.301,63.703 250.213,66.872 247.044 C 68.566 245.350,71.872 245.291,73.233 246.931 M320.197 252.217 C 323.102 255.122,321.328 259.483,317.241 259.483 C 316.009 259.483,314.534 259.017,313.966 258.448 C 311.528 256.010,313.751 250.862,317.241 250.862 C 318.122 250.862,319.452 251.472,320.197 252.217 M190.341 255.408 C 188.779 257.434,184.784 261.595,181.466 264.654 C 178.147 267.714,174.788 271.017,174.003 271.995 C 173.218 272.973,171.075 275.310,169.241 277.189 C 167.407 279.067,163.782 283.094,161.186 286.137 C 158.590 289.180,155.205 292.996,153.664 294.616 C 150.156 298.305,149.801 297.507,157.157 302.471 C 160.935 305.020,164.909 308.649,167.096 311.545 C 171.800 317.776,183.818 329.997,188.793 333.609 L 192.672 336.425 184.483 335.940 C 169.762 335.068,153.368 329.793,139.526 321.474 C 135.648 319.144,132.398 317.335,132.303 317.455 C 127.707 323.246,134.216 336.678,142.672 338.850 C 158.230 342.847,154.051 351.463,134.544 355.611 L 131.587 356.239 133.682 357.406 C 141.372 361.689,162.994 368.399,172.612 369.488 C 178.480 370.151,179.254 371.130,177.250 375.353 C 176.487 376.962,175.862 378.509,175.862 378.792 C 175.862 379.958,169.508 388.042,167.926 388.888 C 165.780 390.037,168.189 393.083,172.714 394.944 C 174.209 395.558,177.565 398.108,180.172 400.611 C 182.780 403.115,185.175 405.165,185.494 405.168 C 185.813 405.170,187.846 407.837,190.011 411.094 C 194.997 418.594,195.905 419.372,198.221 418.133 C 199.199 417.609,200.000 416.612,200.000 415.918 C 200.000 415.223,200.362 414.655,200.804 414.655 C 201.246 414.655,201.881 413.782,202.216 412.716 C 203.647 408.147,216.810 396.010,221.233 395.181 C 224.271 394.611,229.792 389.655,227.390 389.655 C 224.607 389.655,217.119 379.491,215.959 374.138 C 215.805 373.427,215.417 371.681,215.097 370.259 C 214.749 368.710,214.818 368.095,215.268 368.726 C 216.666 370.683,238.866 364.753,251.696 358.995 C 257.454 356.411,258.054 355.533,254.526 354.852 C 253.222 354.601,249.948 353.966,247.251 353.441 C 232.830 350.633,232.317 341.624,246.297 336.673 C 256.604 333.022,260.035 327.593,256.079 321.192 L 254.219 318.183 249.412 321.258 C 237.035 329.176,219.093 334.968,203.570 336.059 C 195.384 336.634,194.808 336.576,196.647 335.369 C 203.429 330.916,214.964 319.384,221.982 310.041 C 223.354 308.215,227.310 304.808,230.773 302.472 C 238.130 297.507,237.775 298.305,234.267 294.616 C 232.726 292.996,229.341 289.180,226.745 286.137 C 224.149 283.094,220.524 279.067,218.690 277.189 C 216.856 275.310,214.713 272.973,213.928 271.995 C 213.143 271.017,209.784 267.714,206.466 264.654 C 203.147 261.595,199.152 257.434,197.590 255.408 C 196.027 253.382,194.396 251.724,193.966 251.724 C 193.535 251.724,191.904 253.382,190.341 255.408 M80.683 265.086 C 82.517 267.886,80.517 271.552,77.155 271.552 C 73.793 271.552,71.793 267.886,73.628 265.086 C 74.499 263.757,75.850 262.931,77.155 262.931 C 78.460 262.931,79.811 263.757,80.683 265.086 M316.890 266.810 C 318.724 269.610,316.724 273.276,313.362 273.276 C 312.057 273.276,310.706 272.450,309.835 271.121 C 308.000 268.321,310.000 264.655,313.362 264.655 C 314.667 264.655,316.018 265.481,316.890 266.810 M87.716 279.165 C 89.235 281.050,89.059 282.493,87.069 284.483 C 84.102 287.449,80.172 285.723,80.172 281.453 C 80.172 277.443,85.119 275.942,87.716 279.165 M311.606 281.000 C 313.734 283.351,312.758 286.863,309.767 287.614 C 306.769 288.366,304.809 287.036,304.452 284.007 C 303.950 279.747,308.675 277.761,311.606 281.000 M123.257 300.502 C 108.622 315.318,101.601 316.318,93.067 304.803 C 91.428 302.591,89.457 299.946,88.689 298.925 L 87.291 297.069 85.979 299.612 C 85.257 301.011,84.395 305.259,84.064 309.052 C 83.061 320.518,81.374 327.094,73.677 349.530 C 63.350 379.633,63.065 379.117,84.258 368.695 C 96.911 362.472,112.322 356.023,135.991 347.046 C 142.143 344.713,144.327 342.266,140.302 342.218 C 136.146 342.169,126.460 334.424,124.696 329.741 C 123.803 327.371,122.769 324.819,122.398 324.072 C 121.901 323.069,124.179 319.988,131.091 312.316 L 140.458 301.918 135.798 297.511 C 130.149 292.168,131.903 291.750,123.257 300.502 M254.095 297.973 C 249.171 301.809,248.403 302.893,249.939 303.841 C 250.379 304.113,253.705 308.024,257.331 312.531 C 264.579 321.543,264.748 322.287,261.158 329.380 C 258.992 333.661,249.439 340.517,245.640 340.517 C 242.261 340.517,244.102 342.957,248.922 344.868 C 265.636 351.491,291.127 363.667,304.594 371.458 C 318.774 379.663,318.798 378.930,305.762 336.179 C 302.509 325.513,300.862 315.922,300.862 307.653 C 300.862 304.578,300.296 301.406,299.458 299.785 L 298.053 297.069 296.656 298.919 C 295.887 299.937,294.289 302.124,293.103 303.779 C 291.918 305.433,289.504 307.685,287.739 308.782 C 285.973 309.878,284.519 311.067,284.506 311.422 C 284.472 312.378,279.787 312.207,276.996 311.149 C 275.661 310.643,271.078 306.603,266.810 302.170 L 259.052 294.111 254.095 297.973 M167.389 347.978 C 169.345 349.749,169.393 351.547,167.539 353.596 C 164.706 356.726,160.345 355.069,160.345 350.862 C 160.345 346.722,164.239 345.128,167.389 347.978 M228.159 349.627 C 228.952 351.693,227.686 355.024,225.893 355.594 C 222.504 356.669,219.220 353.272,220.315 349.823 C 221.372 346.493,226.903 346.355,228.159 349.627 M183.269 351.293 C 185.103 354.093,183.103 357.759,179.741 357.759 C 176.380 357.759,174.380 354.093,176.214 351.293 C 177.085 349.963,178.436 349.138,179.741 349.138 C 181.047 349.138,182.398 349.963,183.269 351.293 M214.150 352.776 C 215.646 357.056,210.558 360.435,207.389 357.266 C 205.765 355.641,205.623 352.481,207.108 350.996 C 209.021 349.082,213.232 350.147,214.150 352.776 M197.470 351.754 C 199.360 352.766,199.743 356.809,198.103 358.448 C 196.653 359.899,193.480 359.736,191.872 358.128 C 188.106 354.362,192.658 349.179,197.470 351.754 M200.400 396.517 C 202.527 398.868,201.551 402.381,198.560 403.131 C 195.562 403.884,193.602 402.554,193.245 399.525 C 192.743 395.264,197.468 393.278,200.400 396.517 " stroke="none" fill="#000000" fill-rule="evenodd"></path></g></svg>